<svg width="1188" height="198" viewBox="0 0 1188 198" fill="none" xmlns="http://www.w3.org/2000/svg">
<g clip-path="url(#clip0_300_19)">
<path d="M14.85 0H79.2V64.35H14.85" fill="#9CFF88"/>
<path d="M79.2 0H143.55V64.35H79.2" fill="#00BB27"/>
<path d="M143.55 0H207.9V64.35H143.55" fill="#05E177"/>
<path d="M14.85 64.3501H79.2V128.7H14.85" fill="#30AD23"/>
<path d="M79.2 64.3501H143.55V128.7H79.2" fill="#7DF481"/>
<path d="M143.55 64.3501H207.9V128.7H143.55" fill="#75DB1B"/>
<path d="M14.85 128.7H79.2V193.05H14.85" fill="#22EE5B"/>
<path d="M79.2 128.7H143.55V193.05H79.2" fill="#11772D"/>
<path d="M143.55 128.7H207.9V193.05H143.55" fill="#3ED715"/>
</g>
<path d="M338.104 77.3254C337.249 74.5566 336.07 72.0785 334.566 69.8908C333.096 67.669 331.318 65.7719 329.233 64.1995C327.182 62.6271 324.824 61.4479 322.158 60.6617C319.492 59.8413 316.586 59.4311 313.441 59.4311C307.801 59.4311 302.777 60.8497 298.367 63.6868C293.958 66.5239 290.488 70.6941 287.959 76.1974C285.463 81.6665 284.216 88.332 284.216 96.1938C284.216 104.124 285.463 110.841 287.959 116.344C290.454 121.847 293.923 126.035 298.367 128.906C302.811 131.743 307.972 133.162 313.851 133.162C319.184 133.162 323.798 132.136 327.695 130.085C331.626 128.034 334.651 125.129 336.77 121.369C338.89 117.575 339.949 113.131 339.949 108.038L344.256 108.704H315.749V93.8353H358.356V106.448C358.356 115.438 356.442 123.215 352.614 129.778C348.785 136.34 343.521 141.399 336.822 144.954C330.122 148.475 322.431 150.235 313.749 150.235C304.075 150.235 295.581 148.065 288.266 143.724C280.986 139.348 275.294 133.144 271.192 125.112C267.125 117.045 265.091 107.474 265.091 96.3989C265.091 87.9218 266.287 80.3505 268.68 73.685C271.107 67.0195 274.491 61.3624 278.832 56.7137C283.173 52.0307 288.266 48.4758 294.111 46.0489C299.957 43.5878 306.314 42.3573 313.185 42.3573C318.996 42.3573 324.414 43.2118 329.438 44.9209C334.463 46.5958 338.924 48.9886 342.821 52.0991C346.752 55.2097 349.982 58.9013 352.511 63.1741C355.041 67.4468 356.699 72.1639 357.485 77.3254H338.104ZM376.751 148.8V43.7929H416.128C424.195 43.7929 430.963 45.1944 436.432 47.9973C441.935 50.8002 446.089 54.7311 448.891 59.79C451.729 64.8148 453.147 70.677 453.147 77.3767C453.147 84.1105 451.712 89.9556 448.84 94.912C446.003 99.8342 441.816 103.645 436.278 106.346C430.741 109.012 423.939 110.345 415.872 110.345H387.825V94.5531H413.308C418.025 94.5531 421.888 93.9036 424.896 92.6047C427.904 91.2716 430.126 89.3403 431.561 86.8109C433.031 84.2472 433.766 81.1025 433.766 77.3767C433.766 73.6508 433.031 70.4719 431.561 67.8399C430.091 65.1737 427.853 63.157 424.845 61.7897C421.836 60.3882 417.957 59.6875 413.206 59.6875H395.773V148.8H376.751ZM430.997 101.219L456.993 148.8H435.766L410.232 101.219H430.997ZM470.657 148.8V43.7929H538.952V59.7388H489.679V88.2465H535.415V104.192H489.679V132.854H539.363V148.8H470.657ZM558.359 148.8V43.7929H626.655V59.7388H577.381V88.2465H623.117V104.192H577.381V132.854H627.065V148.8H558.359ZM732.354 43.7929V148.8H715.434L665.955 77.2741H665.084V148.8H646.061V43.7929H663.084L712.511 115.37H713.434V43.7929H732.354ZM788.664 148.8H753.081V43.7929H789.382C799.808 43.7929 808.763 45.8951 816.249 50.0995C823.769 54.2697 829.546 60.2686 833.579 68.0963C837.613 75.9239 839.629 85.2898 839.629 96.1938C839.629 107.132 837.596 116.532 833.528 124.394C829.495 132.256 823.667 138.289 816.044 142.493C808.456 146.698 799.329 148.8 788.664 148.8ZM772.103 132.341H787.741C795.056 132.341 801.158 131.008 806.046 128.342C810.934 125.642 814.608 121.625 817.069 116.293C819.531 110.926 820.761 104.227 820.761 96.1938C820.761 88.1611 819.531 81.4956 817.069 76.1974C814.608 70.865 810.968 66.8828 806.148 64.2508C801.363 61.5846 795.415 60.2515 788.305 60.2515H772.103V132.341ZM857.703 148.8V43.7929H897.081C905.148 43.7929 911.916 45.1944 917.385 47.9973C922.888 50.8002 927.041 54.7311 929.844 59.79C932.681 64.8148 934.1 70.677 934.1 77.3767C934.1 84.1105 932.664 89.9556 929.793 94.912C926.956 99.8342 922.768 103.645 917.231 106.346C911.694 109.012 904.891 110.345 896.824 110.345H868.778V94.5531H894.261C898.978 94.5531 902.84 93.9036 905.848 92.6047C908.856 91.2716 911.078 89.3403 912.514 86.8109C913.984 84.2472 914.719 81.1025 914.719 77.3767C914.719 73.6508 913.984 70.4719 912.514 67.8399C911.044 65.1737 908.805 63.157 905.797 61.7897C902.789 60.3882 898.909 59.6875 894.158 59.6875H876.725V148.8H857.703ZM911.95 101.219L937.945 148.8H916.718L891.184 101.219H911.95ZM970.632 43.7929V148.8H951.609V43.7929H970.632ZM1005.28 43.7929L1032.61 126.445H1033.68L1060.96 43.7929H1081.88L1044.86 148.8H1021.38L984.411 43.7929H1005.28ZM1095.71 148.8V43.7929H1164.01V59.7388H1114.73V88.2465H1160.47V104.192H1114.73V132.854H1164.42V148.8H1095.71Z" fill="black"/>
<defs>
<clipPath id="clip0_300_19">
<rect width="193.05" height="193.05" fill="white" transform="translate(14.85)"/>
</clipPath>
</defs>
</svg>
